<?xml version="1.0" encoding="utf-8"?>
<!-- Generator: Adobe Illustrator 17.0.0, SVG Export Plug-In . SVG Version: 6.00 Build 0)  -->
<!DOCTYPE svg PUBLIC "-//W3C//DTD SVG 1.1//EN" "http://www.w3.org/Graphics/SVG/1.1/DTD/svg11.dtd">
<svg version="1.1" id="Layer_1" xmlns="http://www.w3.org/2000/svg" xmlns:xlink="http://www.w3.org/1999/xlink" x="0px" y="0px"
	 width="45px" height="90px" viewBox="0 0 45 90" enable-background="new 0 0 45 90" xml:space="preserve">
<rect fill="#434343" width="45" height="45"/>
<path fill="#FFFFFF" d="M39.246,26.938l0.888-6.888h-6.821v-4.398c0-1.994,0.556-3.353,3.415-3.353l3.645-0.002v-6.16
	c-0.629-0.084-2.793-0.272-5.314-0.272c-5.259,0-8.858,3.211-8.858,9.106v5.079h-5.948v6.888h5.948v17.673h7.112V26.938H39.246z"/>
<rect y="45.111" fill="#3A5A98" width="45" height="45"/>
<path fill="#FFFFFF" d="M39.246,72.049l0.888-6.888h-6.821v-4.398c0-1.994,0.556-3.353,3.415-3.353l3.645-0.002v-6.16
	c-0.629-0.084-2.793-0.272-5.314-0.272c-5.259,0-8.858,3.211-8.858,9.106v5.079h-5.948v6.888h5.948v17.673h7.112V72.049H39.246z"/>
</svg>
