<?xml version="1.0" encoding="utf-8"?>
<!-- Generator: Adobe Illustrator 17.0.0, SVG Export Plug-In . SVG Version: 6.00 Build 0)  -->
<!DOCTYPE svg PUBLIC "-//W3C//DTD SVG 1.1//EN" "http://www.w3.org/Graphics/SVG/1.1/DTD/svg11.dtd">
<svg version="1.1" id="Layer_1" xmlns="http://www.w3.org/2000/svg" xmlns:xlink="http://www.w3.org/1999/xlink" x="0px" y="0px"
	 width="45px" height="90px" viewBox="0 0 45 90" enable-background="new 0 0 45 90" xml:space="preserve">
<rect fill="#434343" width="45" height="45.001"/>
<path fill="#FFFFFF" d="M37.499,13.196c-1.104,0.49-2.291,0.821-3.535,0.969c1.271-0.762,2.248-1.967,2.706-3.405
	c-1.188,0.705-2.505,1.218-3.907,1.494c-1.124-1.197-2.724-1.944-4.494-1.944c-3.399,0-6.155,2.756-6.155,6.155
	c0,0.483,0.055,0.952,0.159,1.402c-5.115-0.256-9.649-2.706-12.686-6.431c-0.529,0.911-0.833,1.967-0.833,3.095
	c0,2.135,1.086,4.02,2.737,5.123c-1.008-0.031-1.957-0.31-2.787-0.77v0.078c0,2.982,2.122,5.47,4.937,6.035
	c-0.516,0.14-1.061,0.217-1.622,0.217c-0.396,0-0.783-0.04-1.157-0.112c0.783,2.446,3.056,4.224,5.748,4.275
	c-2.105,1.65-4.759,2.635-7.644,2.635c-0.496,0-0.985-0.03-1.467-0.086c2.724,1.745,5.959,2.764,9.436,2.764
	c11.32,0,17.511-9.377,17.511-17.511c0-0.266-0.007-0.532-0.017-0.797C35.63,15.515,36.672,14.431,37.499,13.196z"/>
<rect y="45" fill="#29A7DF" width="45" height="45.001"/>
<path fill="#FFFFFF" d="M37.499,58.195c-1.104,0.49-2.291,0.821-3.535,0.969c1.271-0.762,2.248-1.967,2.706-3.405
	c-1.188,0.705-2.505,1.218-3.907,1.494c-1.124-1.197-2.724-1.944-4.494-1.944c-3.399,0-6.155,2.756-6.155,6.155
	c0,0.483,0.055,0.952,0.159,1.402c-5.115-0.256-9.649-2.706-12.686-6.431c-0.529,0.911-0.833,1.967-0.833,3.095
	c0,2.135,1.086,4.02,2.737,5.123c-1.008-0.031-1.957-0.31-2.787-0.77v0.078c0,2.982,2.122,5.47,4.937,6.035
	c-0.516,0.14-1.061,0.217-1.622,0.217c-0.396,0-0.783-0.04-1.157-0.112c0.783,2.446,3.056,4.224,5.748,4.275
	c-2.105,1.65-4.759,2.635-7.644,2.635c-0.496,0-0.985-0.03-1.467-0.086c2.724,1.745,5.959,2.764,9.436,2.764
	c11.32,0,17.511-9.377,17.511-17.511c0-0.266-0.007-0.532-0.017-0.797C35.63,60.514,36.672,59.431,37.499,58.195z"/>
</svg>
