<?xml version="1.0" encoding="utf-8"?>
<!-- Generator: Adobe Illustrator 17.0.0, SVG Export Plug-In . SVG Version: 6.00 Build 0)  -->
<!DOCTYPE svg PUBLIC "-//W3C//DTD SVG 1.1//EN" "http://www.w3.org/Graphics/SVG/1.1/DTD/svg11.dtd">
<svg version="1.1" id="Layer_1" xmlns="http://www.w3.org/2000/svg" xmlns:xlink="http://www.w3.org/1999/xlink" x="0px" y="0px"
	 width="45px" height="90px" viewBox="0 0 45 90" enable-background="new 0 0 45 90" xml:space="preserve">
<g>
	<rect fill="#434343" width="45" height="45"/>
	<path fill="#FFFFFF" d="M19.366,4.396h-2.049l-1.383,5.315l-1.438-5.315h-2.134c0.427,1.254,0.873,2.515,1.3,3.771
		c0.65,1.888,1.056,3.31,1.239,4.282v5.482h2.028V12.45L19.366,4.396z M24.784,14.666v-3.533c0-1.078-0.185-1.865-0.568-2.376
		c-0.506-0.688-1.217-1.034-2.132-1.034c-0.91,0-1.623,0.345-2.128,1.034c-0.389,0.511-0.572,1.298-0.572,2.376v3.533
		c0,1.072,0.183,1.867,0.572,2.373c0.505,0.687,1.218,1.033,2.128,1.033c0.916,0,1.626-0.345,2.132-1.033
		C24.599,16.533,24.784,15.738,24.784,14.666z M22.955,15.01c0,0.933-0.282,1.4-0.871,1.4c-0.59,0-0.873-0.467-0.873-1.4v-4.244
		c0-0.934,0.283-1.398,0.873-1.398c0.589,0,0.871,0.464,0.871,1.398V15.01z M31.543,17.932V7.845h-1.828v7.709
		c-0.406,0.572-0.79,0.856-1.155,0.856c-0.246,0-0.388-0.145-0.428-0.428c-0.023-0.059-0.023-0.282-0.023-0.711V7.845h-1.822v7.976
		c0,0.711,0.062,1.195,0.163,1.5c0.182,0.511,0.588,0.751,1.177,0.751c0.667,0,1.36-0.406,2.088-1.241v1.101H31.543z"/>
	<path fill="#FFFFFF" d="M37.464,30.174c0,2.333-0.002,4.809-0.525,7.075c-0.365,1.591-1.667,2.764-3.234,2.94
		c-3.711,0.414-7.468,0.416-11.207,0.414c-3.74,0.002-7.496,0-11.207-0.414c-1.568-0.176-2.869-1.35-3.234-2.94
		c-0.521-2.266-0.521-4.742-0.521-7.075c0-2.336,0.005-4.807,0.527-7.076c0.365-1.59,1.667-2.765,3.234-2.939
		c3.711-0.415,7.468-0.416,11.207-0.415c3.738-0.001,7.496,0,11.207,0.415c1.568,0.175,2.869,1.349,3.234,2.939
		C37.466,25.367,37.464,27.838,37.464,30.174z"/>
	<path fill="#CCCCCC" d="M16.073,25.139v-1.887H9.765v1.887h2.128v11.509h2.011V25.139H16.073z M19.726,36.648V35.56
		c-0.718,0.824-1.401,1.226-2.066,1.226c-0.583,0-0.985-0.236-1.165-0.743c-0.1-0.304-0.16-0.778-0.16-1.484v-7.893h1.808v7.349
		c0,0.423,0,0.645,0.017,0.703c0.044,0.28,0.181,0.422,0.423,0.422c0.363,0,0.744-0.28,1.143-0.846v-7.629h1.811v9.982
		L19.726,36.648L19.726,36.648z M26.6,33.796c0,0.901-0.266,1.345-0.787,1.345c-0.297,0-0.599-0.142-0.902-0.444v-6.085
		c0.302-0.297,0.605-0.44,0.902-0.44c0.521,0,0.787,0.463,0.787,1.362V33.796z M28.407,33.654v-3.976
		c0-0.944-0.062-1.605-0.182-2.007c-0.241-0.747-0.725-1.126-1.446-1.126c-0.664,0-1.284,0.364-1.869,1.082v-4.375h-1.808v13.396
		h1.808v-0.967c0.605,0.747,1.225,1.105,1.869,1.105c0.721,0,1.204-0.379,1.446-1.122C28.346,35.242,28.407,34.577,28.407,33.654z
		 M33.425,30.482h-1.808v-0.923c0-0.923,0.303-1.386,0.907-1.386c0.597,0,0.9,0.463,0.9,1.386L33.425,30.482L33.425,30.482z
		 M35.235,33.455v-0.263h-1.847c0,0.726-0.022,1.125-0.038,1.224c-0.104,0.483-0.364,0.726-0.809,0.726
		c-0.62,0-0.923-0.46-0.923-1.385v-1.768h3.617v-2.067c0-1.068-0.182-1.848-0.561-2.352c-0.506-0.684-1.226-1.023-2.133-1.023
		c-0.923,0-1.645,0.339-2.166,1.023c-0.385,0.504-0.559,1.285-0.559,2.352v3.496c0,1.059,0.197,1.848,0.581,2.346
		c0.522,0.682,1.242,1.023,2.19,1.023c0.944,0,1.686-0.358,2.187-1.082c0.218-0.32,0.36-0.684,0.421-1.083
		C35.212,34.439,35.235,34.037,35.235,33.455z"/>
</g>
<g>
	<rect y="45" fill="#CD332C" width="45" height="45"/>
	<path fill="#FFFFFF" d="M19.366,49.396h-2.049l-1.383,5.315l-1.438-5.315h-2.134c0.427,1.254,0.873,2.515,1.3,3.771
		c0.65,1.888,1.056,3.31,1.239,4.282v5.482h2.028V57.45L19.366,49.396z M24.784,59.666v-3.533c0-1.078-0.185-1.865-0.568-2.376
		c-0.506-0.688-1.217-1.034-2.132-1.034c-0.91,0-1.623,0.345-2.128,1.034c-0.389,0.511-0.572,1.298-0.572,2.376v3.533
		c0,1.072,0.183,1.867,0.572,2.373c0.505,0.687,1.218,1.033,2.128,1.033c0.916,0,1.626-0.345,2.132-1.033
		C24.599,61.533,24.784,60.738,24.784,59.666z M22.955,60.01c0,0.933-0.282,1.4-0.871,1.4c-0.59,0-0.873-0.467-0.873-1.4v-4.244
		c0-0.934,0.283-1.398,0.873-1.398c0.589,0,0.871,0.464,0.871,1.398V60.01z M31.543,62.932V52.845h-1.828v7.709
		c-0.406,0.572-0.79,0.856-1.155,0.856c-0.246,0-0.388-0.145-0.428-0.428c-0.023-0.059-0.023-0.282-0.023-0.711v-7.426h-1.822v7.976
		c0,0.711,0.062,1.195,0.163,1.5c0.182,0.511,0.588,0.751,1.177,0.751c0.667,0,1.36-0.406,2.088-1.241v1.101H31.543z"/>
	<path fill="#FFFFFF" d="M37.464,75.174c0,2.333-0.002,4.809-0.525,7.075c-0.365,1.591-1.667,2.764-3.234,2.94
		c-3.711,0.414-7.468,0.416-11.207,0.414c-3.74,0.002-7.496,0-11.207-0.414c-1.568-0.176-2.869-1.35-3.234-2.94
		c-0.521-2.266-0.521-4.742-0.521-7.075c0-2.336,0.005-4.807,0.527-7.076c0.365-1.59,1.667-2.765,3.234-2.939
		c3.711-0.415,7.468-0.416,11.207-0.415c3.738-0.001,7.496,0,11.207,0.415c1.568,0.175,2.869,1.349,3.234,2.939
		C37.466,70.367,37.464,72.838,37.464,75.174z"/>
	<path fill="#CD332C" d="M16.073,70.139v-1.887H9.765v1.887h2.128v11.509h2.011V70.139H16.073z M19.726,81.648V80.56
		c-0.718,0.824-1.401,1.226-2.066,1.226c-0.583,0-0.985-0.236-1.165-0.743c-0.1-0.304-0.16-0.778-0.16-1.484v-7.893h1.808v7.349
		c0,0.423,0,0.645,0.017,0.703c0.044,0.28,0.181,0.422,0.423,0.422c0.363,0,0.744-0.28,1.143-0.846v-7.629h1.811v9.982
		L19.726,81.648L19.726,81.648z M26.6,78.796c0,0.901-0.266,1.345-0.787,1.345c-0.297,0-0.599-0.142-0.902-0.444v-6.085
		c0.302-0.297,0.605-0.44,0.902-0.44c0.521,0,0.787,0.463,0.787,1.362V78.796z M28.407,78.654v-3.976
		c0-0.944-0.062-1.605-0.182-2.007c-0.241-0.747-0.725-1.126-1.446-1.126c-0.664,0-1.284,0.364-1.869,1.082v-4.375h-1.808v13.396
		h1.808v-0.967c0.605,0.747,1.225,1.105,1.869,1.105c0.721,0,1.204-0.379,1.446-1.122C28.346,80.242,28.407,79.577,28.407,78.654z
		 M33.425,75.482h-1.808v-0.923c0-0.923,0.303-1.386,0.907-1.386c0.597,0,0.9,0.463,0.9,1.386L33.425,75.482L33.425,75.482z
		 M35.235,78.455v-0.263h-1.847c0,0.726-0.022,1.125-0.038,1.224c-0.104,0.483-0.364,0.726-0.809,0.726
		c-0.62,0-0.923-0.46-0.923-1.385v-1.768h3.617v-2.067c0-1.068-0.182-1.848-0.561-2.352c-0.506-0.684-1.226-1.023-2.133-1.023
		c-0.923,0-1.645,0.339-2.166,1.023c-0.385,0.504-0.559,1.285-0.559,2.352v3.496c0,1.059,0.197,1.848,0.581,2.346
		c0.522,0.682,1.242,1.023,2.19,1.023c0.944,0,1.686-0.358,2.187-1.082c0.218-0.32,0.36-0.684,0.421-1.083
		C35.212,79.439,35.235,79.037,35.235,78.455z"/>
</g>
</svg>
