<?xml version="1.0" encoding="utf-8"?>
<!-- Generator: Adobe Illustrator 19.0.0, SVG Export Plug-In . SVG Version: 6.00 Build 0)  -->
<svg version="1.1" id="Layer_1" xmlns="http://www.w3.org/2000/svg" xmlns:xlink="http://www.w3.org/1999/xlink" x="0px" y="0px"
	 viewBox="-85 109 45 45" style="enable-background:new -85 109 45 45;" xml:space="preserve">
<style type="text/css">
	.st0{fill:#CD332C;}
	.st1{fill:#FFFFFF;}
</style>
<g>
	<rect x="-85" y="109" class="st0" width="45" height="45"/>
	<path class="st1" d="M-65.6,113.4h-2l-1.4,5.3l-1.4-5.3h-2.1c0.4,1.3,0.9,2.5,1.3,3.8c0.6,1.9,1.1,3.3,1.2,4.3v5.5h2v-5.5
		L-65.6,113.4z M-60.2,123.7v-3.5c0-1.1-0.2-1.9-0.6-2.4c-0.5-0.7-1.2-1-2.1-1c-0.9,0-1.6,0.3-2.1,1c-0.4,0.5-0.6,1.3-0.6,2.4v3.5
		c0,1.1,0.2,1.9,0.6,2.4c0.5,0.7,1.2,1,2.1,1c0.9,0,1.6-0.3,2.1-1C-60.4,125.5-60.2,124.7-60.2,123.7z M-62,124
		c0,0.9-0.3,1.4-0.9,1.4c-0.6,0-0.9-0.5-0.9-1.4v-4.2c0-0.9,0.3-1.4,0.9-1.4c0.6,0,0.9,0.5,0.9,1.4V124z M-53.5,126.9v-10.1h-1.8
		v7.7c-0.4,0.6-0.8,0.9-1.2,0.9c-0.2,0-0.4-0.1-0.4-0.4c0-0.1,0-0.3,0-0.7v-7.4h-1.8v8c0,0.7,0.1,1.2,0.2,1.5
		c0.2,0.5,0.6,0.8,1.2,0.8c0.7,0,1.4-0.4,2.1-1.2v1.1H-53.5z"/>
	<path class="st1" d="M-47.5,139.2c0,2.3,0,4.8-0.5,7.1c-0.4,1.6-1.7,2.8-3.2,2.9c-3.7,0.4-7.5,0.4-11.2,0.4c-3.7,0-7.5,0-11.2-0.4
		c-1.6-0.2-2.9-1.3-3.2-2.9c-0.5-2.3-0.5-4.7-0.5-7.1c0-2.3,0-4.8,0.5-7.1c0.4-1.6,1.7-2.8,3.2-2.9c3.7-0.4,7.5-0.4,11.2-0.4
		c3.7,0,7.5,0,11.2,0.4c1.6,0.2,2.9,1.3,3.2,2.9C-47.5,134.4-47.5,136.8-47.5,139.2z"/>
	<path class="st0" d="M-68.9,134.1v-1.9h-6.3v1.9h2.1v11.5h2v-11.5H-68.9z M-65.3,145.6v-1.1c-0.7,0.8-1.4,1.2-2.1,1.2
		c-0.6,0-1-0.2-1.2-0.7c-0.1-0.3-0.2-0.8-0.2-1.5v-7.9h1.8v7.3c0,0.4,0,0.6,0,0.7c0,0.3,0.2,0.4,0.4,0.4c0.4,0,0.7-0.3,1.1-0.8v-7.6
		h1.8v10L-65.3,145.6L-65.3,145.6z M-58.4,142.8c0,0.9-0.3,1.3-0.8,1.3c-0.3,0-0.6-0.1-0.9-0.4v-6.1c0.3-0.3,0.6-0.4,0.9-0.4
		c0.5,0,0.8,0.5,0.8,1.4V142.8z M-56.6,142.7v-4c0-0.9-0.1-1.6-0.2-2c-0.2-0.7-0.7-1.1-1.4-1.1c-0.7,0-1.3,0.4-1.9,1.1v-4.4h-1.8
		v13.4h1.8v-1c0.6,0.7,1.2,1.1,1.9,1.1c0.7,0,1.2-0.4,1.4-1.1C-56.7,144.2-56.6,143.6-56.6,142.7z M-51.6,139.5h-1.8v-0.9
		c0-0.9,0.3-1.4,0.9-1.4c0.6,0,0.9,0.5,0.9,1.4L-51.6,139.5L-51.6,139.5z M-49.8,142.5v-0.3h-1.8c0,0.7,0,1.1,0,1.2
		c-0.1,0.5-0.4,0.7-0.8,0.7c-0.6,0-0.9-0.5-0.9-1.4V141h3.6v-2.1c0-1.1-0.2-1.8-0.6-2.4c-0.5-0.7-1.2-1-2.1-1c-0.9,0-1.6,0.3-2.2,1
		c-0.4,0.5-0.6,1.3-0.6,2.4v3.5c0,1.1,0.2,1.8,0.6,2.3c0.5,0.7,1.2,1,2.2,1c0.9,0,1.7-0.4,2.2-1.1c0.2-0.3,0.4-0.7,0.4-1.1
		C-49.8,143.4-49.8,143-49.8,142.5z"/>
</g>
</svg>
